<?xml version="1.0" encoding="utf-8"?>
<svg version="1.1" xmlns="http://www.w3.org/2000/svg" xmlns:xlink="http://www.w3.org/1999/xlink" x="0" y="0" width="128" height="128" viewBox="0 0 64 64" xml:space="preserve">
<g id="auth-center">
	<path fill="url(#lgid)" d="M44,26h-2v-2c0-5.514-4.486-10-10-10c-5.514,0-10,4.486-10,10v2h-2c-1.104,0-2,0.896-2,2v16
		c0,1.104,0.896,2,2,2h24c1.104,0,2-0.896,2-2V28C46,26.896,45.104,26,44,26z M34,37.222V42h-4v-4.778
		c-0.609-0.549-1-1.337-1-2.222c0-1.657,1.343-3,3-3c1.657,0,3,1.343,3,3C35,35.886,34.609,36.673,34,37.222z M38,26H26v-2
		c0-3.309,2.691-6,6-6s6,2.691,6,6V26z"/>
	<linearGradient id="lgid" gradientUnits="userSpaceOnUse" x1="10" y1="10" x2="54" y2="54">
		<stop  offset="0" style="stop-color:#E68CBC"/>
		<stop  offset="1" style="stop-color:#8366B3"/>
	</linearGradient>
	<polygon points="54.5,44.99038 54.5,19.00962 32,6.01924 9.5,19.00962 9.5,44.99038 32,57.98076"
		stroke="url(#lgid)" stroke-width="4" stroke-linejoin="round" fill="none" />
</g>
</svg>
